<!DOCTYPE svg PUBLIC "-//W3C//DTD SVG 1.1//EN" "http://www.w3.org/Graphics/SVG/1.1/DTD/svg11.dtd">
<!-- Uploaded to: SVG Repo, www.svgrepo.com, Transformed by: SVG Repo Mixer Tools -->
<svg fill="#ffffff" width="800px" height="800px" viewBox="0 0 24 24" id="Layer_2" version="1.1" xml:space="preserve" xmlns="http://www.w3.org/2000/svg" xmlns:xlink="http://www.w3.org/1999/xlink">
<g id="SVGRepo_bgCarrier" stroke-width="0"/>
<g id="SVGRepo_tracerCarrier" stroke-linecap="round" stroke-linejoin="round"/>
<g id="SVGRepo_iconCarrier">
<path d="M19.25,10.25c-0.79,0-1.452,0.53-1.668,1.25h-0.788c-0.1-0.958-0.473-1.826-1.05-2.536L16.3,8.407 c0.258,0.138,0.54,0.215,0.826,0.215c0.449,0,0.897-0.17,1.238-0.512c0.331-0.331,0.513-0.77,0.513-1.237 c0-0.468-0.183-0.907-0.513-1.237c-0.685-0.684-1.795-0.682-2.476,0C15.33,6.195,15.237,7.037,15.593,7.7l-0.557,0.557 c-0.71-0.577-1.578-0.95-2.536-1.05V6.418c0.72-0.217,1.25-0.878,1.25-1.668C13.75,3.785,12.965,3,12,3s-1.75,0.785-1.75,1.75 c0,0.79,0.53,1.452,1.25,1.668v0.788c-0.958,0.1-1.826,0.473-2.536,1.05L8.407,7.7C8.763,7.037,8.67,6.195,8.111,5.636 c-0.682-0.683-1.792-0.683-2.476,0c-0.33,0.33-0.513,0.77-0.513,1.237c0,0.467,0.182,0.907,0.513,1.237 c0.341,0.341,0.789,0.512,1.237,0.512c0.286,0,0.569-0.077,0.827-0.216l0.557,0.557c-0.577,0.71-0.95,1.578-1.05,2.536H6.418 c-0.217-0.72-0.878-1.25-1.668-1.25C3.785,10.25,3,11.035,3,12s0.785,1.75,1.75,1.75c0.79,0,1.452-0.53,1.668-1.25h0.788 c0.1,0.958,0.473,1.826,1.05,2.536L7.7,15.593c-0.663-0.356-1.507-0.262-2.064,0.296c-0.331,0.331-0.513,0.77-0.513,1.237 c0,0.468,0.183,0.907,0.513,1.237c0.342,0.341,0.789,0.512,1.237,0.512c0.449,0,0.897-0.17,1.238-0.512 c0.558-0.559,0.651-1.401,0.295-2.064l0.557-0.557c0.71,0.577,1.578,0.95,2.536,1.05v0.788c-0.72,0.217-1.25,0.878-1.25,1.668 c0,0.965,0.785,1.75,1.75,1.75s1.75-0.785,1.75-1.75c0-0.79-0.53-1.452-1.25-1.668v-0.788c0.958-0.1,1.826-0.473,2.536-1.05 l0.557,0.557c-0.356,0.663-0.263,1.505,0.295,2.064c0.341,0.341,0.789,0.512,1.237,0.512s0.896-0.17,1.238-0.512 c0.33-0.33,0.513-0.77,0.513-1.237c0-0.467-0.182-0.907-0.513-1.237c-0.559-0.559-1.402-0.652-2.064-0.296l-0.557-0.557 c0.577-0.71,0.95-1.578,1.05-2.536h0.788c0.217,0.72,0.878,1.25,1.668,1.25c0.965,0,1.75-0.785,1.75-1.75S20.215,10.25,19.25,10.25z M16.596,6.343c0.146-0.146,0.339-0.219,0.53-0.219c0.192,0,0.385,0.073,0.531,0.219c0.142,0.142,0.22,0.33,0.22,0.53 s-0.078,0.389-0.22,0.53c-0.293,0.292-0.769,0.292-1.062,0C16.304,7.111,16.304,6.635,16.596,6.343z M11.25,4.75 C11.25,4.336,11.587,4,12,4s0.75,0.336,0.75,0.75S12.413,5.5,12,5.5S11.25,5.164,11.25,4.75z M6.343,7.404 c-0.142-0.142-0.22-0.33-0.22-0.53s0.078-0.389,0.22-0.53c0.146-0.146,0.339-0.219,0.531-0.219c0.191,0,0.384,0.073,0.53,0.219 c0.292,0.292,0.292,0.768,0,1.061C7.11,7.697,6.635,7.696,6.343,7.404z M4.75,12.75C4.337,12.75,4,12.414,4,12s0.337-0.75,0.75-0.75 S5.5,11.586,5.5,12S5.163,12.75,4.75,12.75z M7.404,17.657c-0.294,0.294-0.77,0.292-1.062,0c-0.142-0.142-0.22-0.33-0.22-0.53 s0.078-0.389,0.22-0.53c0.146-0.146,0.339-0.22,0.531-0.22c0.191,0,0.384,0.073,0.53,0.219C7.696,16.889,7.696,17.365,7.404,17.657z M12.75,19.25c0,0.414-0.337,0.75-0.75,0.75s-0.75-0.336-0.75-0.75S11.587,18.5,12,18.5S12.75,18.836,12.75,19.25z M17.126,16.377 c0.192,0,0.385,0.073,0.531,0.219c0.142,0.142,0.22,0.33,0.22,0.53s-0.078,0.389-0.22,0.53c-0.293,0.292-0.769,0.294-1.062,0 c-0.292-0.292-0.292-0.768,0-1.061C16.742,16.45,16.935,16.377,17.126,16.377z M12,15.844c-2.119,0-3.844-1.724-3.844-3.844 S9.881,8.156,12,8.156S15.844,9.88,15.844,12S14.119,15.844,12,15.844z M19.25,12.75c-0.413,0-0.75-0.336-0.75-0.75 s0.337-0.75,0.75-0.75S20,11.586,20,12S19.663,12.75,19.25,12.75z"/>
<path d="M10.579,12.242c-0.195,0.195-0.195,0.512,0,0.707s0.512,0.195,0.707,0c0.406-0.406,1.068-0.406,1.475,0 c0.098,0.098,0.226,0.146,0.354,0.146s0.256-0.049,0.354-0.146c0.195-0.195,0.195-0.512,0-0.707 C12.671,11.445,11.376,11.445,10.579,12.242z"/>
<path d="M12,10c-0.922,0-1.787,0.358-2.437,1.008c-0.195,0.195-0.195,0.512,0,0.707s0.512,0.195,0.707,0 C10.731,11.254,11.346,11,12,11s1.269,0.254,1.729,0.715c0.098,0.098,0.226,0.146,0.354,0.146s0.256-0.049,0.354-0.146 c0.195-0.195,0.195-0.512,0-0.707C13.787,10.358,12.922,10,12,10z"/>
<circle cx="12.023" cy="13.778" r="0.5"/>
</g>
</svg>