<!DOCTYPE svg PUBLIC "-//W3C//DTD SVG 1.1//EN" "http://www.w3.org/Graphics/SVG/1.1/DTD/svg11.dtd">
<!-- Uploaded to: SVG Repo, www.svgrepo.com, Transformed by: SVG Repo Mixer Tools -->
<svg fill="#ffffff" version="1.1" id="Layer_1" xmlns="http://www.w3.org/2000/svg" xmlns:xlink="http://www.w3.org/1999/xlink" viewBox="0 0 512 512" xml:space="preserve" width="800px" height="800px">
<g id="SVGRepo_bgCarrier" stroke-width="0"/>
<g id="SVGRepo_tracerCarrier" stroke-linecap="round" stroke-linejoin="round"/>
<g id="SVGRepo_iconCarrier"> <path d="M450.535,224.686h49.976L256,0L11.489,224.686h49.976v269.357H22.558V512h466.885v-17.957h-38.907V224.686z M57.569,206.729 l26.056-23.943h262.16v-17.957h-242.62L256,24.387l198.431,182.341H57.569V206.729z M79.422,464.114h122.707v-17.957H79.422V272.572 h62.85v-17.957h-62.85v-29.928h353.156v29.928h-62.85v17.957h62.85v173.585H309.871v17.957h122.707v29.928H79.422L79.422,464.114 L79.422,464.114z"/> <path d="M256,69.058c-21.453,0-38.907,17.454-38.907,38.907s17.454,38.907,38.907,38.907c21.454,0,38.907-17.454,38.907-38.907 S277.454,69.058,256,69.058z M256,128.915c-11.551,0-20.95-9.399-20.95-20.95s9.399-20.95,20.95-20.95 c11.551,0,20.95,9.399,20.95,20.95S267.551,128.915,256,128.915z"/> <polygon points="276.002,267.609 259.941,259.578 217.529,344.4 266.327,344.4 235.776,415.684 252.28,422.758 293.559,326.443 246.585,326.443 "/> <rect x="94.383" y="410.248" width="23.943" height="17.957"/> <rect x="94.383" y="374.334" width="23.943" height="17.957"/> <rect x="130.297" y="410.248" width="23.943" height="17.957"/> <rect x="393.668" y="410.248" width="23.943" height="17.957"/> <rect x="357.753" y="410.248" width="23.943" height="17.957"/> <rect x="393.668" y="374.334" width="23.943" height="17.957"/> <rect x="393.668" y="290.534" width="23.943" height="17.957"/> <rect x="94.383" y="290.534" width="23.943" height="17.957"/> </g>
</svg>